<svg width="318" height="309" viewBox="0 0 318 309" fill="none" xmlns="http://www.w3.org/2000/svg">
    <path d="M258.5 36.7555C188.584 7.96648 125 17.2942 104 23.7555C60.093 37.2651 34.5659 47.6057 15.556 89.2026C2.54014 117.683 2.92559 150.655 9.36929 181.276C15.3756 209.815 26.8251 237.912 46.8759 259.183C65.1502 278.568 82 288.755 116.5 291.755C177.984 293.923 212 274.756 212 274.756C212 274.756 265.323 247.071 284.5 213.256C299.754 186.361 317 156.756 311 104.756C306.327 64.2555 284 47.2556 258.5 36.7555Z" fill="#480086"/>
    <path d="M89.3449 225.15L84.0628 218.588C82.5638 216.726 79.8388 216.431 77.9758 217.93L76.3848 219.211C75.4518 219.962 74.0868 219.815 73.3358 218.881L66.7838 210.741L66.0028 209.771L59.4508 201.631C58.6998 200.698 58.8468 199.333 59.7808 198.582L61.3718 197.301C63.2348 195.802 63.5288 193.077 62.0298 191.214L56.7478 184.652C55.2488 182.789 52.5238 182.495 50.6608 183.994L48.9258 185.391C44.3978 189.036 43.6818 195.661 47.3258 200.19L51.4368 205.298L59.3488 215.128L60.1298 216.099L68.0418 225.929L72.1528 231.037C75.7978 235.565 82.4228 236.281 86.9518 232.637L88.6868 231.24C90.5498 229.737 90.8439 227.012 89.3449 225.15Z" fill="#4B4DF6"/>
    <path d="M83.2118 210.186C83.1538 210.186 83.0948 210.181 83.0358 210.17C82.4918 210.074 82.1298 209.554 82.2258 209.011C82.9608 204.871 82.3368 201.538 80.3698 199.105C77.0118 194.951 70.7628 194.686 70.7008 194.684C70.1488 194.665 69.7168 194.203 69.7348 193.651C69.7538 193.099 70.2658 192.659 70.7658 192.685C71.0578 192.694 77.9698 192.971 81.9138 197.835C84.2708 200.74 85.0368 204.618 84.1938 209.36C84.1098 209.846 83.6878 210.186 83.2118 210.186Z" fill="white"/>
    <path d="M89.5018 209.854C89.4708 209.854 89.4388 209.853 89.4068 209.85C88.8568 209.798 88.4528 209.31 88.5058 208.761C90.1898 190.903 73.0198 188.691 72.2868 188.606C71.7388 188.542 71.3459 188.046 71.4089 187.498C71.4739 186.95 71.9768 186.56 72.5158 186.619C72.7148 186.642 92.3669 189.122 90.4959 208.949C90.4479 209.466 90.0118 209.854 89.5018 209.854Z" fill="white"/>
    <path d="M95.7298 208.784C95.1798 208.784 94.7338 208.341 94.7298 207.79C94.5958 187.374 75.3828 182.912 74.5658 182.732C74.0268 182.613 73.6848 182.08 73.8028 181.541C73.9208 181.002 74.4578 180.662 74.9918 180.778C75.2078 180.825 96.5849 185.741 96.7289 207.778C96.7329 208.33 96.2878 208.781 95.7358 208.784C95.7338 208.784 95.7318 208.784 95.7298 208.784Z" fill="white"/>
    <path d="M282.992 85.6312L281.779 114.531C281.726 115.791 281.097 116.876 280.159 117.584C279.445 118.11 278.55 118.411 277.602 118.371L225.34 116.178C224.393 116.138 223.526 115.776 222.859 115.179C221.982 114.409 221.448 113.261 221.5 112.002L222.712 83.1017C222.766 81.8428 223.395 80.743 224.333 80.0493C225.047 79.5233 225.941 79.235 226.889 79.2747L279.15 81.4681C280.098 81.5077 280.964 81.8837 281.632 82.454C282.509 83.2362 283.045 84.3714 282.992 85.6312Z" fill="white"/>
    <path d="M261.056 99.1856L280.159 117.584C279.445 118.11 278.55 118.411 277.602 118.371L274.988 118.262L257.867 101.78L253.316 105.482C252.909 105.804 252.427 105.96 251.94 105.94C251.466 105.92 250.986 105.723 250.621 105.369L246.384 101.297L227.955 116.289L222.86 115.179L243.437 98.4467L224.334 80.0487C225.048 79.5227 225.942 79.2344 226.89 79.2741L229.503 79.3842L252.14 101.186L276.537 81.3579L279.15 81.4671C280.098 81.5068 280.964 81.8828 281.633 82.453L261.056 99.1856Z" fill="#A4ADFF"/>
    <path d="M65.3101 180.755C46.8184 167.815 34.2244 146.889 31.5155 124.602C29.7086 109.734 32.5049 93.6969 42.2336 82.2453C49.6652 73.4982 60.5939 68.1029 71.9182 65.9414C94.445 61.6433 117.778 69.5305 137.284 81.5041C156.792 93.477 173.47 109.396 191.564 123.384C200.259 130.105 209.952 135.389 220.448 138.729C233.818 142.984 247.853 134.014 254 124.938" stroke="white" stroke-width="0.9" stroke-miterlimit="10" stroke-linecap="round" stroke-linejoin="round" stroke-dasharray="3 5 3 5 3 5"/>
    <path d="M155.557 246.755C149.708 246.755 149.993 246.755 148.935 246.755C144.331 246.755 137.164 233.854 137.164 228.854C137.164 223.886 144.303 210.703 148.935 210.703C151.207 210.703 149.672 210.703 155.557 210.703C161.422 210.703 166.056 212.528 169.33 216.126C172.477 219.59 174.071 223.871 174.071 228.854C174.071 233.869 172.457 238.13 169.275 241.517C166.001 244.994 161.387 246.755 155.557 246.755ZM138.04 195.128L138.142 189.949C138.318 181.01 139.53 174.032 141.848 168.615C144.189 163.144 148.665 157.403 155.532 151.061L155.639 150.965L171.548 137.087C177.342 131.517 180.16 125.847 180.16 119.756C180.16 113.963 178.501 109.628 175.09 106.503C171.599 103.309 166.177 101.689 158.977 101.689C151.818 101.689 146.094 103.236 141.963 106.287C138.202 109.064 136.45 112.536 136.45 117.217V122.296H103.622L103.697 117.143C103.883 104.349 109.319 93.8916 119.854 86.0617C129.947 78.5594 143.11 74.7555 158.977 74.7555C175.492 74.7555 188.674 78.67 198.156 86.3897C207.949 94.3666 212.914 105.379 212.914 119.123C212.914 132.643 205.683 145.921 191.421 158.59L191.312 158.684L178.113 169.753C173.256 174.374 170.895 181.014 170.895 190.05V195.128H138.04Z" fill="#65A4DA"/>
    <path d="M148.935 246.755C143.086 246.755 138.482 244.983 135.25 241.486C132.126 238.105 130.542 233.854 130.542 228.854C130.542 223.886 132.106 219.615 135.191 216.16C138.426 212.538 143.05 210.702 148.934 210.702C154.8 210.702 159.434 212.527 162.708 216.125C165.855 219.589 167.449 223.871 167.449 228.853C167.449 233.869 165.835 238.129 162.652 241.516C159.379 244.994 154.765 246.755 148.935 246.755ZM131.418 195.128L131.52 189.949C131.696 181.01 132.908 174.032 135.226 168.615C137.567 163.144 142.043 157.403 148.91 151.061L149.017 150.965L164.926 137.087C170.72 131.517 173.538 125.847 173.538 119.756C173.538 113.963 171.879 109.628 168.468 106.503C164.977 103.309 159.555 101.689 152.355 101.689C145.196 101.689 139.472 103.236 135.341 106.287C131.58 109.064 129.828 112.536 129.828 117.217V122.296H97L97.075 117.143C97.2606 104.349 102.697 93.8916 113.232 86.0617C123.325 78.5594 136.488 74.7555 152.355 74.7555C168.871 74.7555 182.052 78.67 191.534 86.3897C201.327 94.3666 206.292 105.379 206.292 119.123C206.292 132.643 199.061 145.921 184.799 158.59L184.69 158.684L171.492 169.753C166.635 174.374 164.274 181.014 164.274 190.05V195.128H131.418Z" fill="#7DBBF1"/>
    <path d="M312.413 232.706C310.704 231.49 308.11 231.887 306.826 233.574C305.542 235.261 305.783 237.984 307.353 239.385C308.925 240.788 311.573 240.624 312.958 239.028C314.345 237.428 314.565 234.237 312.413 232.706Z" fill="#F2D3E8"/>
    <path d="M230.413 6.70604C228.704 5.48982 226.11 5.88677 224.826 7.57442C223.542 9.26124 223.783 11.9842 225.353 13.3854C226.925 14.7882 229.573 14.6254 230.958 13.0277C232.345 11.4277 232.565 8.23736 230.413 6.70604Z" fill="#F2D3E8"/>
    <path d="M139.437 3C139.394 5.26301 139.352 7.52767 139.31 9.79069" stroke="#2E2854" stroke-width="1.5" stroke-miterlimit="10" stroke-linecap="round" stroke-linejoin="round"/>
    <path d="M136 6.29423L142.524 6.13789" stroke="#2E2854" stroke-width="1.5" stroke-miterlimit="10" stroke-linecap="round" stroke-linejoin="round"/>
    <path d="M251.191 22.468C251.148 24.731 251.106 26.9957 251.065 29.2587" stroke="white" stroke-width="1.5" stroke-miterlimit="10" stroke-linecap="round" stroke-linejoin="round"/>
    <path d="M247.754 25.7623L254.278 25.6059" stroke="white" stroke-width="1.5" stroke-miterlimit="10" stroke-linecap="round" stroke-linejoin="round"/>
    <path d="M284.418 0.585104C283.209 0.41814 281.952 1.33398 281.695 2.5682C281.437 3.80325 282.217 5.17497 283.384 5.54082C284.552 5.90585 285.933 5.20934 286.378 4.03241C286.822 2.85548 286.395 0.860103 284.418 0.585104Z" fill="#F2D3E8"/>
    <path d="M7.77285 48.0197C6.56385 47.8527 5.30669 48.7686 5.04926 50.0028C4.79182 51.2378 5.57123 52.6095 6.73916 52.9754C7.9063 53.3404 9.28823 52.6439 9.73282 51.467C10.1774 50.2901 9.75019 48.2939 7.77285 48.0197Z" fill="#F2D3E8"/>
    <path d="M21.8408 291.249C20.6319 291.082 19.3747 291.998 19.1172 293.233C18.8598 294.468 19.6392 295.839 20.8072 296.205C21.9743 296.57 23.3562 295.874 23.8008 294.697C24.2446 293.52 23.8182 291.524 21.8408 291.249Z" fill="#F2D3E8"/>
    <path d="M91.8579 285.288C90.6489 285.122 89.3918 286.037 89.1343 287.272C88.8769 288.507 89.6563 289.878 90.8242 290.244C91.9914 290.608 93.3733 289.913 93.8179 288.736C94.2625 287.559 93.8353 285.563 91.8579 285.288Z" fill="white"/>
    <path d="M291.766 90.1972C290.557 90.0302 289.3 90.946 289.042 92.1803C288.785 93.4153 289.564 94.787 290.732 95.1529C291.899 95.5179 293.281 94.8214 293.726 93.6453C294.17 92.4667 293.743 90.4713 291.766 90.1972Z" fill="white"/>
    <path d="M211.773 303.02C210.564 302.853 209.307 303.769 209.049 305.003C208.792 306.238 209.571 307.61 210.739 307.975C211.906 308.34 213.288 307.644 213.733 306.468C214.177 305.29 213.75 303.294 211.773 303.02Z" fill="white"/>
    <path d="M220.437 58C220.395 60.263 220.352 62.5277 220.31 64.7907" stroke="white" stroke-width="1.5" stroke-miterlimit="10" stroke-linecap="round" stroke-linejoin="round"/>
    <path d="M217 61.2943L223.524 61.138" stroke="white" stroke-width="1.5" stroke-miterlimit="10" stroke-linecap="round" stroke-linejoin="round"/>
    <path d="M31.4367 6C31.394 8.26301 31.3514 10.5277 31.3103 12.7907" stroke="white" stroke-width="1.5" stroke-miterlimit="10" stroke-linecap="round" stroke-linejoin="round"/>
    <path d="M28 9.29429L34.5235 9.13797" stroke="white" stroke-width="1.5" stroke-miterlimit="10" stroke-linecap="round" stroke-linejoin="round"/>
    <path d="M283.437 202C283.395 204.263 283.352 206.528 283.31 208.791" stroke="white" stroke-width="1.5" stroke-miterlimit="10" stroke-linecap="round" stroke-linejoin="round"/>
    <path d="M280 205.295L286.524 205.138" stroke="white" stroke-width="1.5" stroke-miterlimit="10" stroke-linecap="round" stroke-linejoin="round"/>
    <path d="M188.437 240C188.395 242.264 188.353 244.528 188.311 246.791" stroke="white" stroke-width="1.5" stroke-miterlimit="10" stroke-linecap="round" stroke-linejoin="round"/>
    <path d="M185 243.294L191.524 243.138" stroke="white" stroke-width="1.5" stroke-miterlimit="10" stroke-linecap="round" stroke-linejoin="round"/>
    <path d="M5.28636 249.221C5.28636 247.994 4.3269 247 3.14318 247C1.95945 247 1 247.994 1 249.221C1 250.448 1.95945 251.443 3.14318 251.443C4.3269 251.443 5.28636 250.448 5.28636 249.221Z" stroke="#2E2854" stroke-width="1.5" stroke-miterlimit="10" stroke-linecap="round" stroke-linejoin="round"/>
    <path d="M299.775 290.483C300.959 290.483 301.919 289.489 301.919 288.262C301.919 287.035 300.959 286.041 299.775 286.041C298.592 286.041 297.632 287.035 297.632 288.262C297.632 289.489 298.592 290.483 299.775 290.483Z" stroke="#2E2854" stroke-width="1.5" stroke-miterlimit="10" stroke-linecap="round" stroke-linejoin="round"/>
    <path d="M314.143 49.4425C315.327 49.4425 316.286 48.4481 316.286 47.2213C316.286 45.9945 315.327 45 314.143 45C312.96 45 312 45.9945 312 47.2213C312 48.4481 312.96 49.4425 314.143 49.4425Z" stroke="#2E2854" stroke-width="1.5" stroke-miterlimit="10" stroke-linecap="round" stroke-linejoin="round"/>
    <path d="M54.4367 116C54.394 118.263 54.3514 120.528 54.3103 122.791" stroke="white" stroke-width="1.5" stroke-miterlimit="10" stroke-linecap="round" stroke-linejoin="round"/>
    <path d="M51 119.294L57.5235 119.138" stroke="white" stroke-width="1.5" stroke-miterlimit="10" stroke-linecap="round" stroke-linejoin="round"/>
</svg>
